M48
; DRILL file {KiCad 7.0.6} date Fri Jul 14 19:01:35 2023
; FORMAT={-:-/ absolute / metric / decimal}
; #@! TF.CreationDate,2023-07-14T19:01:35+02:00
; #@! TF.GenerationSoftware,Kicad,Pcbnew,7.0.6
; #@! TF.FileFunction,Plated,1,2,PTH
FMAT,2
METRIC
; #@! TA.AperFunction,Plated,PTH,ViaDrill
T1C0.400
; #@! TA.AperFunction,Plated,PTH,ComponentDrill
T2C0.813
; #@! TA.AperFunction,Plated,PTH,ComponentDrill
T3C1.092
%
G90
G05
T1
X47.529Y-89.357
X48.687Y-88.546
X49.845Y-87.734
X60.082Y-86.755
X66.714Y-84.21
X67.872Y-83.399
X69.031Y-82.588
X79.293Y-81.461
X85.343Y-82.215
X86.502Y-81.404
X87.66Y-80.592
X97.897Y-79.613
X102.184Y-90.363
X103.343Y-89.552
X104.501Y-88.741
X112.156Y-93.436
X114.746Y-87.712
X119.494Y-95.852
X120.652Y-95.041
X121.811Y-94.23
X131.874Y-94.235
X133.26Y-100.566
X148.215Y-86.52
X150.015Y-89.22
X151.315Y-76.42
X152.615Y-84.02
X152.744Y-120.998
X153.915Y-81.42
X155.115Y-81.32
X156.315Y-73.82
X157.715Y-76.42
X158.615Y-81.32
X158.644Y-82.698
X158.841Y-87.793
X176.945Y-99.347
X177.035Y-96.4
X178.193Y-97.211
X179.351Y-98.022
X188.867Y-97.277
X190.32Y-91.307
X194.171Y-89.926
X195.329Y-90.737
X196.488Y-91.548
X207.465Y-84.882
X211.012Y-81.778
X212.17Y-82.589
X213.328Y-83.4
X224.298Y-76.685
X229.624Y-83.675
X230.782Y-84.486
X231.941Y-85.297
X242.91Y-78.582
X248.826Y-88.92
X249.985Y-89.731
X251.143Y-90.542
X262.121Y-83.876
X262.912Y-88.484
T2
X145.149Y-73.859
X160.382Y-73.859
T3
X145.138Y-76.372
X145.138Y-78.912
X145.138Y-81.452
X145.138Y-83.992
X145.138Y-86.532
X145.138Y-89.072
X145.138Y-91.612
X145.138Y-94.152
X145.138Y-96.692
X145.138Y-99.232
X145.138Y-101.772
X145.138Y-104.312
X147.518Y-111.055
X150.058Y-111.055
X152.598Y-111.055
X155.138Y-111.055
X157.678Y-111.055
X160.378Y-76.372
X160.378Y-78.912
X160.378Y-81.452
X160.378Y-83.992
X160.378Y-86.532
X160.378Y-89.072
X160.378Y-91.612
X160.378Y-94.152
X160.378Y-96.692
X160.378Y-99.232
X160.378Y-101.772
X160.378Y-104.312
T0
M30
