M48
; DRILL file {KiCad 7.0.6} date Fri Jul 14 19:01:35 2023
; FORMAT={-:-/ absolute / metric / decimal}
; #@! TF.CreationDate,2023-07-14T19:01:35+02:00
; #@! TF.GenerationSoftware,Kicad,Pcbnew,7.0.6
; #@! TF.FileFunction,NonPlated,1,2,NPTH
FMAT,2
METRIC
; #@! TA.AperFunction,NonPlated,NPTH,ComponentDrill
T1C0.900
; #@! TA.AperFunction,NonPlated,NPTH,ComponentDrill
T2C1.800
; #@! TA.AperFunction,NonPlated,NPTH,ComponentDrill
T3C3.050
; #@! TA.AperFunction,NonPlated,NPTH,ComponentDrill
T4C3.400
%
G90
G05
T1
X151.258Y-126.259
X154.258Y-126.259
T2
X44.032Y-97.404
X46.984Y-80.662
X49.936Y-63.92
X54.865Y-99.314
X57.817Y-82.572
X60.769Y-65.83
X63.235Y-92.158
X66.187Y-75.417
X69.139Y-58.675
X74.068Y-94.069
X77.02Y-77.327
X79.972Y-60.585
X81.847Y-90.262
X84.799Y-73.52
X87.751Y-56.778
X92.68Y-92.172
X95.632Y-75.43
X98.584Y-58.688
X98.688Y-98.41
X101.64Y-81.668
X102.718Y-124.506
X104.592Y-64.926
X109.521Y-100.32
X112.473Y-83.578
X113.55Y-126.416
X115.425Y-66.836
X115.824Y-104.884
X118.776Y-88.142
X120.444Y-127.632
X121.728Y-71.4
X126.657Y-106.794
X129.609Y-90.052
X131.277Y-129.542
X132.561Y-73.31
X172.956Y-73.31
X174.24Y-129.542
X175.908Y-90.052
X178.86Y-106.794
X183.789Y-71.4
X185.073Y-127.632
X186.741Y-88.142
X189.693Y-104.884
X190.092Y-66.836
X191.966Y-126.416
X193.044Y-83.578
X195.996Y-100.32
X200.925Y-64.926
X202.799Y-124.506
X203.877Y-81.668
X206.829Y-98.41
X206.933Y-58.688
X209.885Y-75.43
X212.837Y-92.172
X217.766Y-56.778
X220.718Y-73.52
X223.67Y-90.262
X225.545Y-60.585
X228.497Y-77.327
X231.449Y-94.069
X236.378Y-58.675
X239.33Y-75.417
X242.282Y-92.158
X244.748Y-65.83
X247.7Y-82.572
X250.652Y-99.314
X255.58Y-63.92
X258.532Y-80.662
X261.484Y-97.404
T3
X50.473Y-92.548
X53.425Y-75.807
X55.033Y-95.485
X56.377Y-59.065
X57.985Y-78.743
X60.937Y-62.001
X69.676Y-87.303
X72.628Y-70.561
X74.235Y-90.239
X75.58Y-53.82
X77.187Y-73.498
X80.139Y-56.756
X88.288Y-85.406
X91.24Y-68.665
X92.847Y-88.343
X94.192Y-51.923
X95.799Y-71.601
X98.751Y-54.859
X105.129Y-93.554
X108.081Y-76.813
X109.158Y-119.651
X109.688Y-96.491
X111.033Y-60.071
X112.64Y-79.749
X113.718Y-122.587
X115.592Y-63.007
X122.265Y-100.028
X125.217Y-83.287
X126.824Y-102.965
X126.885Y-122.776
X128.169Y-66.545
X129.776Y-86.223
X131.444Y-125.713
X132.728Y-69.481
X177.348Y-66.545
X178.632Y-122.776
X180.3Y-83.287
X182.636Y-67.745
X183.252Y-100.028
X183.92Y-123.976
X185.588Y-84.487
X188.54Y-101.228
X194.484Y-60.071
X196.358Y-119.651
X197.436Y-76.813
X199.773Y-61.271
X200.388Y-93.554
X201.647Y-120.851
X202.725Y-78.013
X205.677Y-94.754
X211.325Y-51.923
X214.277Y-68.665
X216.613Y-53.123
X217.229Y-85.406
X219.565Y-69.864
X222.517Y-86.606
X229.937Y-53.82
X232.889Y-70.561
X235.226Y-55.02
X235.841Y-87.303
X238.178Y-71.761
X241.13Y-88.503
X249.139Y-59.065
X252.091Y-75.807
X254.428Y-60.265
X255.043Y-92.548
X257.38Y-77.006
X260.332Y-93.748
T4
X49.449Y-98.359
X52.401Y-81.617
X55.353Y-64.875
X68.651Y-93.114
X71.603Y-76.372
X74.555Y-59.63
X87.263Y-91.217
X90.215Y-74.475
X93.167Y-57.733
X104.104Y-99.365
X107.056Y-82.623
X108.134Y-125.461
X110.008Y-65.881
X121.24Y-105.839
X124.192Y-89.097
X125.861Y-128.587
X127.144Y-72.355
X178.372Y-72.355
X179.656Y-128.587
X181.324Y-89.097
X184.276Y-105.839
X195.508Y-65.881
X197.383Y-125.461
X198.46Y-82.623
X201.412Y-99.365
X212.349Y-57.733
X215.301Y-74.475
X218.253Y-91.217
X230.961Y-59.63
X233.913Y-76.372
X236.865Y-93.114
X250.164Y-64.875
X253.116Y-81.617
X256.068Y-98.359
T0
M30
