%TF.GenerationSoftware,KiCad,Pcbnew,7.0.6*%
%TF.CreationDate,2023-07-14T19:01:00+02:00*%
%TF.ProjectId,Choc34SB,43686f63-3334-4534-922e-6b696361645f,rev?*%
%TF.SameCoordinates,Original*%
%TF.FileFunction,Paste,Bot*%
%TF.FilePolarity,Positive*%
%FSLAX46Y46*%
G04 Gerber Fmt 4.6, Leading zero omitted, Abs format (unit mm)*
G04 Created by KiCad (PCBNEW 7.0.6) date 2023-07-14 19:01:00*
%MOMM*%
%LPD*%
G01*
G04 APERTURE LIST*
G04 Aperture macros list*
%AMRoundRect*
0 Rectangle with rounded corners*
0 $1 Rounding radius*
0 $2 $3 $4 $5 $6 $7 $8 $9 X,Y pos of 4 corners*
0 Add a 4 corners polygon primitive as box body*
4,1,4,$2,$3,$4,$5,$6,$7,$8,$9,$2,$3,0*
0 Add four circle primitives for the rounded corners*
1,1,$1+$1,$2,$3*
1,1,$1+$1,$4,$5*
1,1,$1+$1,$6,$7*
1,1,$1+$1,$8,$9*
0 Add four rect primitives between the rounded corners*
20,1,$1+$1,$2,$3,$4,$5,0*
20,1,$1+$1,$4,$5,$6,$7,0*
20,1,$1+$1,$6,$7,$8,$9,0*
20,1,$1+$1,$8,$9,$2,$3,0*%
G04 Aperture macros list end*
%ADD10RoundRect,0.250000X-1.183076X-0.806818X0.835780X-1.162797X1.183076X0.806818X-0.835780X1.162797X0*%
%ADD11RoundRect,0.250000X-0.835780X-1.162797X1.183076X-0.806818X0.835780X1.162797X-1.183076X0.806818X0*%
%ADD12R,0.900000X1.700000*%
%ADD13R,0.900000X0.900000*%
%ADD14R,0.900000X1.250000*%
G04 APERTURE END LIST*
D10*
X105729038Y-118944431D03*
X117164705Y-123194786D03*
D11*
X210812585Y-69173845D03*
X223012304Y-69256644D03*
X192894010Y-120159966D03*
X205093729Y-120242765D03*
X232376753Y-87812426D03*
X244576472Y-87895225D03*
D10*
X121787531Y-82580508D03*
X133223198Y-86830863D03*
D11*
X176835514Y-83796047D03*
X189035233Y-83878846D03*
X175167470Y-123285642D03*
X187367189Y-123368441D03*
D10*
X104651393Y-76106494D03*
X116087060Y-80356849D03*
X87810459Y-67958304D03*
X99246126Y-72208659D03*
X66246298Y-86596892D03*
X77681965Y-90847247D03*
X84858440Y-84700043D03*
X96294107Y-88950398D03*
D11*
X193971647Y-77322034D03*
X206171366Y-77404833D03*
D10*
X107603411Y-59364766D03*
X119039078Y-63615121D03*
D11*
X179787537Y-100537782D03*
X191987256Y-100620581D03*
D10*
X118835504Y-99322240D03*
X130271171Y-103572595D03*
X52947786Y-58358621D03*
X64383453Y-62608976D03*
D11*
X213764600Y-85915576D03*
X225964319Y-85998375D03*
X191019632Y-60580305D03*
X203219351Y-60663104D03*
D10*
X90762471Y-51216578D03*
X102198138Y-55466933D03*
D11*
X226472709Y-54328967D03*
X238672428Y-54411766D03*
D10*
X49995765Y-75100363D03*
X61431432Y-79350718D03*
X124739546Y-65838778D03*
X136175213Y-70089133D03*
D11*
X173883498Y-67054313D03*
X186083217Y-67137112D03*
X196923671Y-94063765D03*
X209123390Y-94146564D03*
D10*
X47043746Y-91842097D03*
X58479413Y-96092452D03*
X72150335Y-53113436D03*
X83586002Y-57363791D03*
X123455578Y-122070100D03*
X134891245Y-126320455D03*
D11*
X248627281Y-76315901D03*
X260827000Y-76398700D03*
X229424725Y-71070698D03*
X241624444Y-71153497D03*
D10*
X69198319Y-69855156D03*
X80633986Y-74105511D03*
D11*
X207860570Y-52432114D03*
X220060289Y-52514913D03*
X245675258Y-59574167D03*
X257874977Y-59656966D03*
D10*
X101699377Y-92848225D03*
X113135044Y-97098580D03*
D11*
X251579296Y-93057631D03*
X263779015Y-93140430D03*
D12*
X154458350Y-118712982D03*
X151058350Y-118712982D03*
D13*
X149058346Y-125158709D03*
X149058346Y-127358709D03*
X156458346Y-125158709D03*
X156458346Y-127358709D03*
D14*
X155008346Y-124183709D03*
X152008346Y-124183709D03*
X150508346Y-124183709D03*
M02*
